<?xml version="1.0" standalone="no"?><!DOCTYPE svg PUBLIC "-//W3C//DTD SVG 1.1//EN" "http://www.w3.org/Graphics/SVG/1.1/DTD/svg11.dtd"><svg t="1560619427340" class="icon" style="" viewBox="0 0 1024 1024" version="1.1" xmlns="http://www.w3.org/2000/svg" p-id="12850" xmlns:xlink="http://www.w3.org/1999/xlink" width="200" height="200"><defs><style type="text/css"></style></defs><path d="M536.816941 304.670118C495.681012 304.652563 454.911219 312.397802 416.647529 327.499294L416.647529 39.152941 197.511529 6.927059 189.741176 102.4 174.682353 3.553882 150.588235 0 225.882353 1019.964235 416.647529 978.823529 416.647529 951.717647C454.909604 966.824713 495.68047 974.570153 536.816941 974.546824 719.691294 974.546824 868.111059 824.681412 868.111059 639.759059 868.111059 454.836706 719.631059 304.670118 536.816941 304.670118M436.585412 628.796235C437.513715 566.540915 488.575951 516.739073 550.835028 517.366698 613.094106 517.994324 663.141976 568.815443 662.815043 631.076828 662.48811 693.338208 611.909294 743.630938 549.647059 743.604706 486.728699 743.107602 436.117864 691.714819 436.585412 628.796235M682.164706 751.917176C607.774118 816.670118 533.082353 779.023059 533.082353 779.023059 533.082353 779.023059 585.788235 803.117176 661.082353 739.870118 736.376471 676.623059 689.694118 568.199529 689.694118 568.199529 689.694118 568.199529 763.482353 681.140706 682.164706 751.917176" p-id="12851" fill="#ff6666"></path></svg>